<?xml version="1.0" encoding="utf-8"?>
<!-- Generator: Adobe Illustrator 27.5.0, SVG Export Plug-In . SVG Version: 6.00 Build 0)  -->
<svg version="1.1" id="Layer_1" xmlns="http://www.w3.org/2000/svg" xmlns:xlink="http://www.w3.org/1999/xlink" x="0px" y="0px"
	 viewBox="0 0 1200 1200" style="enable-background:new 0 0 1200 1200;" xml:space="preserve">
<g>
	<rect style="fill:#64B8CB;" width="1200" height="1200"/>
</g>
<g>
	<path style="fill:#FFFFFF;" d="M904.072,601.499c0,168.273-136.413,304.685-304.683,304.685
		c-168.274,0-304.688-136.411-304.688-304.685S431.115,296.813,599.39,296.813C767.659,296.813,904.072,433.226,904.072,601.499z"/>
	<g>
		<g>
			<path style="fill:#FFFFFF;" d="M204.332,606.246c-1.246-107.85,41.265-215.821,126.435-294.717
				c85.172-78.896,196.075-113.039,303.514-103.561l2.871-2.661c-7.477-0.705-15-1.227-22.568-1.515
				c-106.228-4.062-207.685,33.488-285.672,105.731c-77.989,72.245-123.178,170.537-127.241,276.769
				c-0.291,7.564-0.344,15.106-0.214,22.618L204.332,606.246z"/>
			<path style="fill:#FFFFFF;" d="M940.582,401.924l2.124-1.973c-14.429-24.472-31.577-47.579-51.352-68.92
				c-28.118-30.357-60.2-55.718-95.144-75.645l-2.221,2.06c34.652,19.572,66.903,44.722,95.361,75.442
				C909.29,354.409,926.339,377.585,940.582,401.924z"/>
			<path style="fill:#FFFFFF;" d="M991.407,552.256c15.166,122.039-26.512,249.443-123.416,339.214
				c-159.892,148.112-410.47,138.532-558.581-21.361c-28.46-30.719-51.073-64.8-67.94-100.844l-2.225,2.059
				c17.202,36.363,40.037,70.285,68.157,100.641c72.245,77.996,170.537,123.183,276.766,127.24
				c106.233,4.065,207.69-33.481,285.679-105.731c77.991-72.24,123.176-170.534,127.239-276.767
				c0.866-22.586-0.17-44.953-3.004-66.931L991.407,552.256z"/>
		</g>
		<g>
			<path style="fill:#FFFFFF;" d="M312.086,444.018c12.08-22.032,26.876-43.013,44.466-62.435
				c118.779-131.158,320.377-143.684,454.425-30.174l1.759-1.943c-64.157-54.395-145.271-81.97-229.686-77.789
				c-88.099,4.363-169.228,42.771-228.437,108.152c-17.918,19.784-33.16,41.331-45.614,64.189H312.086z"/>
			<path style="fill:#FFFFFF;" d="M272.466,582.615h-2.792c-0.645,11.651-0.702,23.399-0.116,35.215
				c4.181,84.411,39.631,162.409,100.1,220.877l1.757-1.944C300.656,768.26,267.243,674.71,272.466,582.615z"/>
			<path style="fill:#FFFFFF;" d="M889.815,444.018c-3.321-6.113-6.844-12.126-10.557-18.029l-1.923,2.119
				c3.263,5.229,6.347,10.539,9.288,15.91H889.815z"/>
			<path style="fill:#FFFFFF;" d="M929.063,582.615h-2.795c4.899,84.65-22.769,171.135-84.053,238.804
				C741.808,932.288,582.23,958.36,454.298,895.222l-1.921,2.122c50.057,24.972,105.933,36.823,163.339,33.979
				c88.1-4.359,169.226-42.772,228.441-108.148c59.207-65.377,89.415-149.906,85.054-238.004
				C929.169,584.317,929.11,583.466,929.063,582.615z"/>
		</g>
		<g>
			<path style="fill:#FFFFFF;" d="M733.069,929.697c4.816-2.014,9.651-4.157,14.37-6.382l-1.115-2.364
				c-4.682,2.207-9.483,4.338-14.262,6.334L733.069,929.697z"/>
			<path style="fill:#FFFFFF;" d="M312.703,812.339l-2.096,1.559c3.117,4.187,6.369,8.354,9.66,12.378l2.026-1.652
				C319.026,820.626,315.802,816.489,312.703,812.339z"/>
			<path style="fill:#FFFFFF;" d="M295.211,786.565l-2.228,1.371c2.73,4.431,5.596,8.866,8.523,13.175l2.163-1.469
				C300.765,795.36,297.92,790.963,295.211,786.565z"/>
			<path style="fill:#FFFFFF;" d="M257.292,701.275l-2.509,0.734c1.469,5.017,3.068,10.059,4.754,14.989l2.471-0.844
				C260.337,711.261,258.75,706.25,257.292,701.275z"/>
			<path style="fill:#FFFFFF;" d="M354.194,858.809l-1.79,1.904c3.797,3.564,7.733,7.097,11.694,10.503l1.703-1.98
				C361.868,865.854,357.962,862.346,354.194,858.809z"/>
			<path style="fill:#FFFFFF;" d="M280.066,759.323l-2.343,1.169c2.331,4.664,4.802,9.347,7.336,13.907l2.284-1.272
				C284.826,768.6,282.377,763.955,280.066,759.323z"/>
			<path style="fill:#FFFFFF;" d="M267.386,730.808l-2.434,0.959c1.907,4.858,3.946,9.738,6.065,14.499l2.388-1.058
				C271.307,740.477,269.279,735.634,267.386,730.808z"/>
			<path style="fill:#FFFFFF;" d="M703.546,940.508c4.977-1.574,9.981-3.28,14.88-5.074l-0.9-2.454
				c-4.86,1.779-9.83,3.477-14.77,5.035L703.546,940.508z"/>
			<path style="fill:#FFFFFF;" d="M641.88,951.521l0.34,2.594c5.177-0.681,10.406-1.484,15.541-2.39l-0.451-2.574
				C652.206,950.05,647.016,950.849,641.88,951.521z"/>
			<path style="fill:#FFFFFF;" d="M672.619,946.106l0.562,2.555c5.096-1.133,10.238-2.39,15.272-3.741l-0.675-2.524
				C682.778,943.733,677.679,944.986,672.619,946.106z"/>
			<path style="fill:#FFFFFF;" d="M377.859,879.143l-1.614,2.058c4.105,3.224,8.337,6.4,12.575,9.437l1.523-2.127
				C386.136,885.497,381.938,882.342,377.859,879.143z"/>
			<path style="fill:#FFFFFF;" d="M403.231,897.327l-1.429,2.19c4.372,2.852,8.868,5.646,13.363,8.302l1.33-2.251
				C412.036,902.929,407.573,900.16,403.231,897.327z"/>
			<path style="fill:#FFFFFF;" d="M468.083,930.638c-3.282-1.278-6.557-2.592-9.781-3.956l-1.019,2.406
				c3.682,1.565,7.435,3.057,11.183,4.502L468.083,930.638z"/>
			<path style="fill:#FFFFFF;" d="M430.112,913.219l-1.231,2.308c4.612,2.456,9.336,4.845,14.049,7.093l1.126-2.359
				C439.38,918.025,434.688,915.655,430.112,913.219z"/>
			<path style="fill:#FFFFFF;" d="M332.417,836.481l-1.951,1.743c3.474,3.886,7.082,7.753,10.722,11.484l1.871-1.826
				C339.444,844.177,335.864,840.34,332.417,836.481z"/>
			<path style="fill:#FFFFFF;" d="M323.161,377.746l-2.02-1.661c-3.317,4.04-6.584,8.202-9.707,12.368l2.096,1.569
				C316.625,385.887,319.868,381.756,323.161,377.746z"/>
			<path style="fill:#FFFFFF;" d="M365.083,331.245c-3.957,3.383-7.897,6.904-11.713,10.47l1.787,1.911
				c3.788-3.54,7.697-7.036,11.623-10.393L365.083,331.245z"/>
			<path style="fill:#FFFFFF;" d="M342.13,352.692c-3.645,3.721-7.263,7.575-10.75,11.464l1.945,1.748
				c3.463-3.86,7.052-7.689,10.67-11.381L342.13,352.692z"/>
			<path style="fill:#FFFFFF;" d="M387.589,313.547c-3.49,2.527-6.965,5.117-10.348,7.759l1.609,2.06
				c2.987-2.333,6.047-4.62,9.124-6.865L387.589,313.547z"/>
			<path style="fill:#FFFFFF;" d="M534.027,254.271l-0.456-2.575c-4.634,0.822-9.303,1.758-13.922,2.766l0.342,2.601
				C524.643,256.043,529.354,255.099,534.027,254.271z"/>
			<path style="fill:#FFFFFF;" d="M610.932,954.232l0.336,2.602c5.095-0.228,10.25-0.565,15.326-1.007l-0.228-2.606
				C621.255,953.669,616.058,954.008,610.932,954.232z"/>
			<path style="fill:#FFFFFF;" d="M302.279,401.242c-2.946,4.309-5.835,8.743-8.588,13.179l2.222,1.38
				c2.733-4.403,5.6-8.807,8.523-13.085L302.279,401.242z"/>
			<path style="fill:#FFFFFF;" d="M285.693,427.969c-2.551,4.547-5.041,9.219-7.396,13.891l2.334,1.178
				c2.339-4.636,4.808-9.272,7.34-13.789L285.693,427.969z"/>
			<path style="fill:#FFFFFF;" d="M250.887,515.512c-1.268,5.072-2.438,10.246-3.482,15.375l2.565,0.519
				c1.034-5.091,2.195-10.224,3.456-15.257L250.887,515.512z"/>
			<path style="fill:#FFFFFF;" d="M271.521,456.066c-2.144,4.765-4.21,9.643-6.14,14.498l2.427,0.965
				c1.92-4.818,3.97-9.659,6.099-14.388L271.521,456.066z"/>
			<path style="fill:#FFFFFF;" d="M259.884,485.323c-1.713,4.937-3.343,9.982-4.833,14.993l2.507,0.746
				c1.482-4.973,3.095-9.981,4.798-14.883L259.884,485.323z"/>
			<path style="fill:#FFFFFF;" d="M936.553,703.411c1.502-5.017,2.907-10.129,4.182-15.192l-2.538-0.638
				c-1.26,5.026-2.661,10.1-4.149,15.082L936.553,703.411z"/>
			<path style="fill:#FFFFFF;" d="M918.458,458.499l2.394-1.056c-2.111-4.767-4.363-9.554-6.692-14.231l-2.34,1.165
				C914.131,449.021,916.363,453.773,918.458,458.499z"/>
			<path style="fill:#FFFFFF;" d="M869.664,379.029l2.027-1.653c-3.296-4.044-6.723-8.066-10.187-11.956l-1.952,1.741
				C862.991,371.021,866.392,375.014,869.664,379.029z"/>
			<path style="fill:#FFFFFF;" d="M761.514,916.301c4.598-2.422,9.214-4.989,13.706-7.616l-1.318-2.257
				c-4.46,2.611-9.038,5.155-13.607,7.559L761.514,916.301z"/>
			<path style="fill:#FFFFFF;" d="M888.259,404.029l2.164-1.465c-2.919-4.314-5.977-8.618-9.081-12.8l-2.102,1.561
				C882.325,395.476,885.358,399.749,888.259,404.029z"/>
			<path style="fill:#FFFFFF;" d="M596.91,248.782l0.005-2.615c-5.212-0.011-10.5,0.099-15.723,0.32l0.113,2.612
				C586.485,248.879,591.735,248.772,596.91,248.782z"/>
			<path style="fill:#FFFFFF;" d="M549.453,251.885l0.759-0.102c5.153-0.672,10.375-1.237,15.52-1.682l-0.227-2.605
				c-5.183,0.449-10.439,1.019-15.636,1.696l-0.756,0.099L549.453,251.885z"/>
			<path style="fill:#FFFFFF;" d="M628.081,250.218l0.239-2.605c-5.197-0.47-10.477-0.83-15.687-1.069l-0.12,2.61
				C617.69,249.393,622.925,249.751,628.081,250.218z"/>
			<path style="fill:#FFFFFF;" d="M719.249,271.023l0.921-2.448c-4.914-1.836-9.916-3.583-14.874-5.19l-0.809,2.487
				C709.41,267.466,714.374,269.201,719.249,271.023z"/>
			<path style="fill:#FFFFFF;" d="M689.507,261.382l0.693-2.523c-5.025-1.387-10.17-2.681-15.283-3.849l-0.579,2.551
				C679.408,258.716,684.514,260.004,689.507,261.382z"/>
			<path style="fill:#FFFFFF;" d="M659.003,254.42l0.473-2.571c-5.144-0.935-10.37-1.765-15.532-2.465l-0.352,2.59
				C648.719,252.671,653.903,253.495,659.003,254.42z"/>
			<path style="fill:#FFFFFF;" d="M904.56,430.563l2.281-1.269c-2.529-4.56-5.188-9.116-7.907-13.546l-2.231,1.369
				C899.4,421.514,902.045,426.04,904.56,430.563z"/>
			<path style="fill:#FFFFFF;" d="M860.081,839.487c3.486-3.885,6.936-7.89,10.25-11.919l-2.021-1.663
				c-3.287,3.999-6.711,7.98-10.179,11.833L860.081,839.487z"/>
			<path style="fill:#FFFFFF;" d="M880.049,815.209c3.129-4.168,6.219-8.464,9.167-12.775l-2.154-1.48
				c-2.934,4.28-5.993,8.55-9.101,12.685L880.049,815.209z"/>
			<path style="fill:#FFFFFF;" d="M897.814,789.264c2.763-4.435,5.455-8.991,8.02-13.539l-2.281-1.283
				c-2.54,4.515-5.219,9.039-7.953,13.438L897.814,789.264z"/>
			<path style="fill:#FFFFFF;" d="M788.585,900.468c4.368-2.824,8.742-5.785,12.992-8.806l-1.512-2.135
				c-4.225,3.003-8.564,5.944-12.899,8.741L788.585,900.468z"/>
			<path style="fill:#FFFFFF;" d="M913.242,761.841c2.359-4.663,4.642-9.439,6.796-14.197l-2.389-1.078
				c-2.13,4.727-4.399,9.468-6.739,14.098L913.242,761.841z"/>
			<path style="fill:#FFFFFF;" d="M814.168,882.287c4.104-3.197,8.197-6.537,12.173-9.931l-1.696-1.989
				c-3.946,3.368-8.011,6.682-12.083,9.857L814.168,882.287z"/>
			<path style="fill:#FFFFFF;" d="M838.063,861.906c3.814-3.565,7.603-7.253,11.252-10.969l-1.868-1.832
				c-3.621,3.689-7.381,7.354-11.17,10.883L838.063,861.906z"/>
			<path style="fill:#FFFFFF;" d="M944.631,548.138l2.584-0.397c-0.793-5.182-1.708-10.391-2.715-15.485l-2.566,0.508
				C942.934,537.818,943.843,542.99,944.631,548.138z"/>
			<path style="fill:#FFFFFF;" d="M926.188,733.154c1.939-4.851,3.792-9.816,5.513-14.756l-2.47-0.86
				c-1.706,4.902-3.547,9.83-5.472,14.643L926.188,733.154z"/>
			<path style="fill:#FFFFFF;" d="M929.824,487.565l2.479-0.843c-1.686-4.94-3.504-9.91-5.4-14.767l-2.436,0.95
				C926.353,477.729,928.157,482.658,929.824,487.565z"/>
			<path style="fill:#FFFFFF;" d="M938.566,517.523l2.537-0.62c-1.233-5.062-2.602-10.173-4.063-15.187l-2.515,0.731
				C935.979,507.428,937.338,512.498,938.566,517.523z"/>
			<path style="fill:#FFFFFF;" d="M950.615,578.998c-0.33-5.183-0.79-10.452-1.361-15.663l-2.597,0.283
				c0.565,5.173,1.017,10.406,1.353,15.55L950.615,578.998z"/>
			<path style="fill:#FFFFFF;" d="M944.229,672.849c1.045-5.111,1.989-10.316,2.804-15.473l-2.583-0.408
				c-0.808,5.115-1.744,10.285-2.78,15.359L944.229,672.849z"/>
			<path style="fill:#FFFFFF;" d="M949.14,641.793c0.587-5.182,1.063-10.452,1.416-15.659l-2.61-0.177
				c-0.352,5.17-0.818,10.397-1.402,15.544L949.14,641.793z"/>
			<path style="fill:#FFFFFF;" d="M951.273,610.424c0.122-5.219,0.128-10.51,0.021-15.722l-2.614,0.057
				c0.105,5.174,0.098,10.424-0.021,15.606L951.273,610.424z"/>
		</g>
	</g>
	<g>
		<g>
			<g>
				<g>
					<path style="fill:#B0B0B0;" d="M260.446,807.902c0,0-4.211,7.84,25.678,14.367h625.756c0,0,20.937-1.34,26.449-11.212
						l0.035-5.403L260.446,807.902z"/>
					<path style="fill:#FFFFFF;" d="M260.591,792.083h677.991v17.408c0,0,1.023,2.334-6.961,1.748H266.975
						c0,0-6.245,1.753-6.827-2.322L260.591,792.083z"/>
					<path style="fill:#B0B0B0;" d="M907.094,802.259c0,0.672-0.448,1.213-1.006,1.213h-23.069c-0.558,0-1.004-0.541-1.004-1.213
						l0,0c0-0.686,0.446-1.236,1.004-1.236h23.069C906.645,801.023,907.094,801.573,907.094,802.259L907.094,802.259z"/>
				</g>
				<path style="fill:#B0B0B0;" d="M553.538,792.22c0,0-2.614,8.721,6.094,9.587h78.655c0,0,8.364,1.085,7.252-9.286L553.538,792.22
					z"/>
				<g>
					<linearGradient id="SVGID_1_" gradientUnits="userSpaceOnUse" x1="645.1254" y1="792.7031" x2="645.1254" y2="792.4961">
						<stop  offset="0.0244" style="stop-color:#5F6767"/>
						<stop  offset="0.4756" style="stop-color:#676B6C"/>
						<stop  offset="0.5137" style="stop-color:#717576"/>
						<stop  offset="0.6192" style="stop-color:#878A8B"/>
						<stop  offset="0.7202" style="stop-color:#949899"/>
						<stop  offset="0.811" style="stop-color:#999C9D"/>
					</linearGradient>
					<path style="fill:url(#SVGID_1_);" d="M645.132,792.703v-0.207h-0.013C645.119,792.562,645.119,792.63,645.132,792.703z"/>
				</g>
			</g>
		</g>
		<path style="fill:#161D21;" d="M871.922,792.007V482.981c0-14.03-11.471-25.501-25.493-25.501H352.358
			c-14.024,0-25.498,11.472-25.498,25.501v309.026H871.922z"/>
		<rect x="344.39" y="476.61" style="fill:#FFFFFF;" width="510" height="296.429"/>
	</g>
	<rect x="451.07" y="351.303" style="fill:#B0B0B0;" width="296.636" height="397.618"/>
	<rect x="451.07" y="369.158" style="fill:#FFFFFF;" width="296.636" height="33.713"/>
	<rect x="451.07" y="351.303" style="fill:#B0B0B0;" width="296.636" height="29.477"/>
	<g>
		<g>
			<rect x="522.429" y="363.198" style="fill:#FFFFFF;" width="63.957" height="6.974"/>
		</g>
		<g>
			<rect x="601.702" y="363.198" style="fill:#FFFFFF;" width="63.958" height="6.974"/>
		</g>
	</g>
	<g>
		<g>
			<rect x="522.429" y="389.117" style="fill:#B0B0B0;" width="63.957" height="6.975"/>
		</g>
	</g>
	<g>
		<rect x="540.594" y="448.943" style="fill:#FFFFFF;" width="86.44" height="6.973"/>
		<rect x="577.874" y="471.273" style="fill:#FFFFFF;" width="8.847" height="6.974"/>
		<rect x="594.225" y="471.273" style="fill:#FFFFFF;" width="8.847" height="6.974"/>
		<rect x="610.997" y="471.273" style="fill:#FFFFFF;" width="8.849" height="6.974"/>
		<rect x="556.998" y="493.604" style="fill:#FFD11D;" width="70.037" height="6.975"/>
		<rect x="577.874" y="515.933" style="fill:#FFFFFF;" width="49.16" height="6.977"/>
		<rect x="638.813" y="515.933" style="fill:#F76031;" width="86.444" height="6.977"/>
		<rect x="638.813" y="493.604" style="fill:#FFFFFF;" width="27.447" height="6.975"/>
		<rect x="688.958" y="493.604" style="fill:#FFFFFF;" width="27.446" height="6.975"/>
		<rect x="638.813" y="471.273" style="fill:#FFFFFF;" width="49.163" height="6.974"/>
		<rect x="540.594" y="545.428" style="fill:#FFFFFF;" width="44.477" height="6.975"/>
		<rect x="570.731" y="567.761" style="fill:#FFFFFF;" width="17.392" height="6.974"/>
		<rect x="556.612" y="590.093" style="fill:#FFD11D;" width="17.101" height="6.971"/>
		<rect x="559.776" y="612.421" style="fill:#FFFFFF;" width="25.295" height="6.975"/>
		<rect x="591.127" y="612.421" style="fill:#FFFFFF;" width="44.477" height="6.975"/>
		<rect x="591.127" y="590.093" style="fill:#FFD11D;" width="25.294" height="6.971"/>
		<rect x="598.6" y="567.761" style="fill:#FFFFFF;" width="25.295" height="6.974"/>
		<g>
			<g>
				<rect x="666.715" y="612.421" style="fill:#FFFFFF;" width="44.477" height="6.975"/>
				<rect x="666.715" y="590.093" style="fill:#FFFFFF;" width="25.294" height="6.973"/>
				<rect x="666.715" y="567.761" style="fill:#FFFFFF;" width="25.294" height="6.974"/>
				<rect x="666.715" y="545.428" style="fill:#FFFFFF;" width="25.294" height="6.975"/>
			</g>
			<g>
				<rect x="616.181" y="545.428" style="fill:#FFFFFF;" width="44.476" height="6.975"/>
				<rect x="635.363" y="567.761" style="fill:#F76031;" width="25.293" height="6.974"/>
				<rect x="635.363" y="590.093" style="fill:#FFFFFF;" width="25.293" height="6.973"/>
			</g>
		</g>
		<rect x="540.594" y="641.916" style="fill:#FFFFFF;" width="86.44" height="6.973"/>
		<rect x="577.874" y="664.245" style="fill:#FFFFFF;" width="49.16" height="6.977"/>
		<rect x="561.857" y="686.574" style="fill:#FFFFFF;" width="35.104" height="6.977"/>
		<rect x="577.874" y="708.905" style="fill:#FFFFFF;" width="49.16" height="6.974"/>
		<rect x="638.813" y="708.905" style="fill:#FFFFFF;" width="86.444" height="6.974"/>
		<rect x="610.795" y="686.574" style="fill:#FFFFFF;" width="49.164" height="6.977"/>
		<rect x="638.813" y="664.245" style="fill:#FFD11D;" width="49.163" height="6.977"/>
	</g>
	<g>
		<path style="fill:#E2E2E2;" d="M778.405,761.402c0,0,1.326-14.732-6.44-26.029c-7.768-11.31,6.09-25.969,15.077-16.37
			c8.98,9.603,26.392,10.777,26.392,10.777L778.405,761.402z"/>
		<path style="opacity:0.5;fill:#E2E2E2;" d="M811.305,656.387c-1.805,54.552-47.483,97.308-102.029,95.507
			c-54.547-1.803-97.31-47.481-95.51-102.026c1.807-54.55,47.486-97.306,102.035-95.51
			C770.349,556.161,813.105,601.842,811.305,656.387z"/>
		<path style="fill:#E2E2E2;" d="M607.87,649.669c1.917-57.805,50.315-103.115,108.124-101.208l0,0
			c57.807,1.915,103.115,50.317,101.209,108.122l0,0c-1.912,57.803-50.314,103.107-108.122,101.207l0,0
			C651.269,755.869,605.967,707.473,607.87,649.669L607.87,649.669z M619.662,650.063c-1.597,51.292,38.522,94.146,89.809,95.931
			l0,0c51.29,1.61,94.15-38.511,95.938-89.801l0,0c1.603-51.294-38.52-94.155-89.802-95.938l0,0
			C664.313,558.652,621.451,598.769,619.662,650.063L619.662,650.063z"/>
		<polygon style="fill:#161D21;" points="827.099,744.844 827.125,744.784 813.434,729.78 778.405,761.402 803.933,789.538 
			803.929,789.545 904.939,900.891 939.968,869.264 		"/>
	</g>
	<rect x="467.819" y="473.784" style="fill:#FFFFFF;" width="33.736" height="33.739"/>
	<g>
		<g>
			<polygon style="fill:#F76031;" points="477.198,481.322 472.813,485.708 490.578,503.473 532.246,461.806 527.858,457.418 
				490.578,494.701 			"/>
		</g>
	</g>
	<rect x="467.819" y="542.046" style="fill:#FFFFFF;" width="33.736" height="33.739"/>
	<g>
		<g>
			<g>
				<polygon style="fill:#F76031;" points="462.355,576.931 466.735,581.25 508.405,539.583 504.016,535.195 466.735,572.478 				
					"/>
			</g>
		</g>
		<g>
			<g>
				<polygon style="fill:#F76031;" points="466.673,535.198 462.352,539.578 504.02,581.248 508.408,576.859 471.125,539.578 				
					"/>
			</g>
		</g>
	</g>
	<rect x="467.819" y="610.306" style="fill:#FFFFFF;" width="33.736" height="33.738"/>
	<rect x="467.819" y="678.567" style="fill:#FFFFFF;" width="33.736" height="33.739"/>
</g>
</svg>
